<mxfile host="app.diagrams.net" modified="2024-05-20T21:57:24.695Z" agent="Mozilla/5.0 (Windows NT 10.0; Win64; x64; rv:126.0) Gecko/20100101 Firefox/126.0" etag="NpQ5lOl-irGzv9eO_kMx" version="24.4.4" type="github">
  <diagram name="Seite-1" id="E7wib-2MsVef_KuFZXy9">
    <mxGraphModel dx="1434" dy="754" grid="1" gridSize="10" guides="1" tooltips="1" connect="1" arrows="1" fold="1" page="1" pageScale="1" pageWidth="827" pageHeight="1169" math="0" shadow="0">
      <root>
        <mxCell id="0" />
        <mxCell id="1" parent="0" />
        <mxCell id="lTR4Wj3IFZbc_k0iF5vJ-8" value="" style="edgeStyle=orthogonalEdgeStyle;rounded=0;orthogonalLoop=1;jettySize=auto;html=1;" edge="1" parent="1" source="lTR4Wj3IFZbc_k0iF5vJ-1" target="lTR4Wj3IFZbc_k0iF5vJ-7">
          <mxGeometry relative="1" as="geometry" />
        </mxCell>
        <mxCell id="lTR4Wj3IFZbc_k0iF5vJ-1" value="&lt;div&gt;Start&lt;/div&gt;&lt;div&gt;Button&lt;br&gt;&lt;/div&gt;" style="rounded=0;whiteSpace=wrap;html=1;" vertex="1" parent="1">
          <mxGeometry x="320" y="20" width="120" height="60" as="geometry" />
        </mxCell>
        <mxCell id="lTR4Wj3IFZbc_k0iF5vJ-10" style="edgeStyle=orthogonalEdgeStyle;rounded=0;orthogonalLoop=1;jettySize=auto;html=1;entryX=1;entryY=0.5;entryDx=0;entryDy=0;" edge="1" parent="1" source="lTR4Wj3IFZbc_k0iF5vJ-4" target="lTR4Wj3IFZbc_k0iF5vJ-7">
          <mxGeometry relative="1" as="geometry">
            <Array as="points">
              <mxPoint x="460" y="250" />
              <mxPoint x="460" y="150" />
            </Array>
          </mxGeometry>
        </mxCell>
        <mxCell id="lTR4Wj3IFZbc_k0iF5vJ-11" value="Nein" style="edgeLabel;html=1;align=center;verticalAlign=middle;resizable=0;points=[];" vertex="1" connectable="0" parent="lTR4Wj3IFZbc_k0iF5vJ-10">
          <mxGeometry x="-0.1" relative="1" as="geometry">
            <mxPoint as="offset" />
          </mxGeometry>
        </mxCell>
        <mxCell id="lTR4Wj3IFZbc_k0iF5vJ-13" value="" style="edgeStyle=orthogonalEdgeStyle;rounded=0;orthogonalLoop=1;jettySize=auto;html=1;entryX=0.5;entryY=0;entryDx=0;entryDy=0;" edge="1" parent="1" source="lTR4Wj3IFZbc_k0iF5vJ-4" target="lTR4Wj3IFZbc_k0iF5vJ-17">
          <mxGeometry relative="1" as="geometry">
            <mxPoint x="320" y="250" as="targetPoint" />
          </mxGeometry>
        </mxCell>
        <mxCell id="lTR4Wj3IFZbc_k0iF5vJ-14" value="JA" style="edgeLabel;html=1;align=center;verticalAlign=middle;resizable=0;points=[];" vertex="1" connectable="0" parent="lTR4Wj3IFZbc_k0iF5vJ-13">
          <mxGeometry x="-0.4333" y="3" relative="1" as="geometry">
            <mxPoint as="offset" />
          </mxGeometry>
        </mxCell>
        <mxCell id="lTR4Wj3IFZbc_k0iF5vJ-4" value="&lt;div&gt;Status ohne Farbe&lt;/div&gt;&lt;div&gt;&amp;amp;&lt;/div&gt;&lt;div&gt;Datum voll&lt;br&gt;&lt;/div&gt;" style="rhombus;whiteSpace=wrap;html=1;rounded=0;" vertex="1" parent="1">
          <mxGeometry x="340" y="210" width="80" height="80" as="geometry" />
        </mxCell>
        <mxCell id="lTR4Wj3IFZbc_k0iF5vJ-9" style="edgeStyle=orthogonalEdgeStyle;rounded=0;orthogonalLoop=1;jettySize=auto;html=1;" edge="1" parent="1" source="lTR4Wj3IFZbc_k0iF5vJ-7" target="lTR4Wj3IFZbc_k0iF5vJ-4">
          <mxGeometry relative="1" as="geometry" />
        </mxCell>
        <mxCell id="lTR4Wj3IFZbc_k0iF5vJ-7" value="Schleife" style="whiteSpace=wrap;html=1;rounded=0;" vertex="1" parent="1">
          <mxGeometry x="320" y="120" width="120" height="60" as="geometry" />
        </mxCell>
        <mxCell id="lTR4Wj3IFZbc_k0iF5vJ-16" value="" style="edgeStyle=orthogonalEdgeStyle;rounded=0;orthogonalLoop=1;jettySize=auto;html=1;" edge="1" parent="1" source="lTR4Wj3IFZbc_k0iF5vJ-12" target="lTR4Wj3IFZbc_k0iF5vJ-15">
          <mxGeometry relative="1" as="geometry" />
        </mxCell>
        <mxCell id="lTR4Wj3IFZbc_k0iF5vJ-12" value="&lt;div&gt;neue Seite erstellen&lt;/div&gt;&lt;div&gt;und umbenennen&lt;br&gt;&lt;/div&gt;" style="whiteSpace=wrap;html=1;rounded=0;" vertex="1" parent="1">
          <mxGeometry x="220" y="440" width="120" height="60" as="geometry" />
        </mxCell>
        <mxCell id="lTR4Wj3IFZbc_k0iF5vJ-25" value="" style="edgeStyle=orthogonalEdgeStyle;rounded=0;orthogonalLoop=1;jettySize=auto;html=1;" edge="1" parent="1" source="lTR4Wj3IFZbc_k0iF5vJ-15" target="lTR4Wj3IFZbc_k0iF5vJ-24">
          <mxGeometry relative="1" as="geometry" />
        </mxCell>
        <mxCell id="lTR4Wj3IFZbc_k0iF5vJ-15" value="&lt;div&gt;Zellen in neues Blatt&lt;/div&gt;&lt;div&gt;Ã¼bertragen&lt;br&gt;&lt;/div&gt;" style="whiteSpace=wrap;html=1;rounded=0;" vertex="1" parent="1">
          <mxGeometry x="220" y="540" width="120" height="60" as="geometry" />
        </mxCell>
        <mxCell id="lTR4Wj3IFZbc_k0iF5vJ-18" style="edgeStyle=orthogonalEdgeStyle;rounded=0;orthogonalLoop=1;jettySize=auto;html=1;entryX=0;entryY=0.5;entryDx=0;entryDy=0;" edge="1" parent="1" source="lTR4Wj3IFZbc_k0iF5vJ-17" target="lTR4Wj3IFZbc_k0iF5vJ-12">
          <mxGeometry relative="1" as="geometry">
            <Array as="points">
              <mxPoint x="200" y="360" />
              <mxPoint x="200" y="470" />
            </Array>
          </mxGeometry>
        </mxCell>
        <mxCell id="lTR4Wj3IFZbc_k0iF5vJ-19" value="AN" style="edgeLabel;html=1;align=center;verticalAlign=middle;resizable=0;points=[];" vertex="1" connectable="0" parent="lTR4Wj3IFZbc_k0iF5vJ-18">
          <mxGeometry x="-0.1176" y="-3" relative="1" as="geometry">
            <mxPoint as="offset" />
          </mxGeometry>
        </mxCell>
        <mxCell id="lTR4Wj3IFZbc_k0iF5vJ-20" style="edgeStyle=orthogonalEdgeStyle;rounded=0;orthogonalLoop=1;jettySize=auto;html=1;entryX=1;entryY=0.5;entryDx=0;entryDy=0;" edge="1" parent="1" source="lTR4Wj3IFZbc_k0iF5vJ-17" target="lTR4Wj3IFZbc_k0iF5vJ-12">
          <mxGeometry relative="1" as="geometry">
            <Array as="points">
              <mxPoint x="360" y="360" />
              <mxPoint x="360" y="470" />
            </Array>
          </mxGeometry>
        </mxCell>
        <mxCell id="lTR4Wj3IFZbc_k0iF5vJ-21" value="MA" style="edgeLabel;html=1;align=center;verticalAlign=middle;resizable=0;points=[];" vertex="1" connectable="0" parent="lTR4Wj3IFZbc_k0iF5vJ-20">
          <mxGeometry x="-0.1647" y="-2" relative="1" as="geometry">
            <mxPoint as="offset" />
          </mxGeometry>
        </mxCell>
        <mxCell id="lTR4Wj3IFZbc_k0iF5vJ-22" style="edgeStyle=orthogonalEdgeStyle;rounded=0;orthogonalLoop=1;jettySize=auto;html=1;entryX=0.5;entryY=0;entryDx=0;entryDy=0;" edge="1" parent="1" source="lTR4Wj3IFZbc_k0iF5vJ-17" target="lTR4Wj3IFZbc_k0iF5vJ-12">
          <mxGeometry relative="1" as="geometry" />
        </mxCell>
        <mxCell id="lTR4Wj3IFZbc_k0iF5vJ-23" value="RE" style="edgeLabel;html=1;align=center;verticalAlign=middle;resizable=0;points=[];" vertex="1" connectable="0" parent="lTR4Wj3IFZbc_k0iF5vJ-22">
          <mxGeometry x="-0.1" y="-1" relative="1" as="geometry">
            <mxPoint as="offset" />
          </mxGeometry>
        </mxCell>
        <mxCell id="lTR4Wj3IFZbc_k0iF5vJ-17" value="&lt;div&gt;AN / RE /&lt;/div&gt;&lt;div&gt;MA 1 / MA 2&lt;/div&gt;" style="rhombus;whiteSpace=wrap;html=1;" vertex="1" parent="1">
          <mxGeometry x="240" y="320" width="80" height="80" as="geometry" />
        </mxCell>
        <mxCell id="lTR4Wj3IFZbc_k0iF5vJ-27" value="" style="edgeStyle=orthogonalEdgeStyle;rounded=0;orthogonalLoop=1;jettySize=auto;html=1;" edge="1" parent="1" source="lTR4Wj3IFZbc_k0iF5vJ-24" target="lTR4Wj3IFZbc_k0iF5vJ-26">
          <mxGeometry relative="1" as="geometry" />
        </mxCell>
        <mxCell id="lTR4Wj3IFZbc_k0iF5vJ-24" value="als PDF speichern" style="whiteSpace=wrap;html=1;rounded=0;" vertex="1" parent="1">
          <mxGeometry x="220" y="640" width="120" height="60" as="geometry" />
        </mxCell>
        <mxCell id="lTR4Wj3IFZbc_k0iF5vJ-26" value="Status auf orange setzen" style="whiteSpace=wrap;html=1;rounded=0;" vertex="1" parent="1">
          <mxGeometry x="220" y="730" width="120" height="60" as="geometry" />
        </mxCell>
      </root>
    </mxGraphModel>
  </diagram>
</mxfile>
